<svg xmlns="http://www.w3.org/2000/svg" width="85" height="86" viewBox="0 0 85 86"><g><g><path fill="#fff" d="M42.5 85.356C19.071 85.356.012 66.294.012 42.863S19.072.369 42.5.369c23.429 0 42.488 19.063 42.488 42.494 0 23.43-19.06 42.493-42.488 42.493zm0-80.738c-21.085 0-38.24 17.157-38.24 38.245 0 21.086 17.155 38.243 38.24 38.243 21.084 0 38.24-17.157 38.24-38.243 0-21.088-17.156-38.245-38.24-38.245zM30.816 61.984a2.126 2.126 0 0 1-2.124-2.124V25.865a2.123 2.123 0 0 1 3.178-1.845L61.61 41.018a2.123 2.123 0 0 1 0 3.688L31.87 61.705c-.326.186-.691.28-1.054.28zm2.124-32.458v26.671l23.335-13.334z"/></g></g></svg>