<svg xmlns="http://www.w3.org/2000/svg" width="21" height="15" viewBox="0 0 21 15"><g><g><path fill="#fff" d="M19.498 13.502a2.65 2.65 0 0 1-1.398.7c-5.869.433-13.684.26-15.202-.046-.541-.108-1.012-.346-1.357-.692-.267-.262-.48-.661-.644-1.216C.507 10.97 0 3.075 1.62 1.602A2.692 2.692 0 0 1 2.953.94C4.796.597 16.29.597 18.133.94c.627.115 1.216.461 1.561.907 1.2 1.848 1.302 10.188-.196 11.654zM13.92 7.37c-1.835-.962-3.386-1.853-5.388-2.775v5.523c2.002-1.006 3.875-1.927 5.388-2.748z"/></g></g></svg>