<svg xmlns="http://www.w3.org/2000/svg" width="18" height="14" viewBox="0 0 18 14"><g><g><path fill="#fff" d="M18.007 1.663a7.648 7.648 0 0 1-2.125.548c.8-.46 1.34-1.109 1.622-1.947-.731.416-1.512.7-2.342.852-.73-.743-1.63-1.114-2.696-1.114-1.02 0-1.89.344-2.61 1.032-.72.69-1.08 1.523-1.08 2.5 0 .262.03.531.092.809a10.643 10.643 0 0 1-4.244-1.089A10.382 10.382 0 0 1 1.26.646 3.347 3.347 0 0 0 .757 2.43c0 .605.148 1.166.445 1.684.297.517.697.937 1.2 1.257a3.793 3.793 0 0 1-1.668-.448v.044c0 .853.28 1.602.84 2.247a3.661 3.661 0 0 0 2.119 1.219c-.32.08-.644.12-.971.12-.214 0-.446-.018-.697-.054.236.706.67 1.288 1.302 1.743a3.701 3.701 0 0 0 2.148.707c-1.34 1.005-2.867 1.508-4.581 1.508-.327 0-.624-.015-.891-.043 1.714 1.056 3.602 1.585 5.666 1.585 1.31 0 2.54-.2 3.69-.596 1.15-.398 2.132-.93 2.947-1.597a10.817 10.817 0 0 0 2.108-2.301c.59-.868 1.03-1.774 1.32-2.718a9.636 9.636 0 0 0 .422-3.297 7.563 7.563 0 0 0 1.85-1.826z"/><path fill="#fff" d="M18.007 1.663a7.648 7.648 0 0 1-2.125.548c.8-.46 1.34-1.109 1.622-1.947-.731.416-1.512.7-2.342.852-.73-.743-1.63-1.114-2.696-1.114-1.02 0-1.89.344-2.61 1.032-.72.69-1.08 1.523-1.08 2.5 0 .262.03.531.092.809a10.643 10.643 0 0 1-4.244-1.089A10.382 10.382 0 0 1 1.26.646 3.347 3.347 0 0 0 .757 2.43c0 .605.148 1.166.445 1.684.297.517.697.937 1.2 1.257a3.793 3.793 0 0 1-1.668-.448v.044c0 .853.28 1.602.84 2.247a3.661 3.661 0 0 0 2.119 1.219c-.32.08-.644.12-.971.12-.214 0-.446-.018-.697-.054.236.706.67 1.288 1.302 1.743a3.701 3.701 0 0 0 2.148.707c-1.34 1.005-2.867 1.508-4.581 1.508-.327 0-.624-.015-.891-.043 1.714 1.056 3.602 1.585 5.666 1.585 1.31 0 2.54-.2 3.69-.596 1.15-.398 2.132-.93 2.947-1.597a10.817 10.817 0 0 0 2.108-2.301c.59-.868 1.03-1.774 1.32-2.718a9.636 9.636 0 0 0 .422-3.297 7.563 7.563 0 0 0 1.85-1.826z"/></g></g></svg>