<svg xmlns="http://www.w3.org/2000/svg" width="18" height="13" viewBox="0 0 18 13"><g><g><path d="M8.604 7.644L.04.022A.088.088 0 0 1 .1 0h17.81c.03 0 .059.018.076.043L9.802 7.336l-.343.306a1 1 0 0 0-.02.014l-.03.02a.655.655 0 0 1-.378.12h-.004a.637.637 0 0 1-.423-.152zM6.139 6.493L.005 11.844V1.033zm11.866-5.424v10.778l-6.128-5.318zM11.29 7.053l6.715 5.826v.017c0 .057-.044.104-.095.104H.1c-.052 0-.096-.047-.096-.103v-.019l6.72-5.862L8.13 8.267c.244.215.563.334.9.334.336 0 .655-.12.9-.335z"/><path fill="#fff" d="M8.604 7.644L.04.022A.088.088 0 0 1 .1 0h17.81c.03 0 .059.018.076.043L9.802 7.336l-.343.306a1 1 0 0 0-.02.014l-.03.02a.655.655 0 0 1-.378.12h-.004a.637.637 0 0 1-.423-.152zM6.139 6.493L.005 11.844V1.033zm11.866-5.424v10.778l-6.128-5.318zM11.29 7.053l6.715 5.826v.017c0 .057-.044.104-.095.104H.1c-.052 0-.096-.047-.096-.103v-.019l6.72-5.862L8.13 8.267c.244.215.563.334.9.334.336 0 .655-.12.9-.335z"/></g></g></svg>