<svg xmlns="http://www.w3.org/2000/svg" width="23" height="23" viewBox="0 0 23 23"><g><g><path fill="#fff" d="M15.61 3.264V1.597c0-.885.724-1.595 1.62-1.595.895 0 1.618.71 1.618 1.595v1.666c0 .883-.725 1.592-1.619 1.592-.895 0-1.619-.71-1.619-1.591zm7.397 19.73l-1.644.004H-.007V2.72l3.29.04v.812c0 1.339 1.105 2.43 2.466 2.43 1.36 0 2.465-1.092 2.465-2.43V2.76h6.579v.81c0 1.34 1.101 2.43 2.464 2.43 1.361 0 2.465-1.09 2.465-2.43v-.81h3.26zm-1.644-1.61V8.429H1.638v12.955zM4.105 3.264V1.597c0-.885.723-1.595 1.618-1.595.894 0 1.62.71 1.62 1.595v1.666c0 .883-.726 1.592-1.62 1.592a1.601 1.601 0 0 1-1.618-1.591zm4.114 6.903h2.59v2.252H8.22zm4.187 0H15v2.252h-2.593zm3.886 0h2.59v2.252h-2.59zm-8.073 3.74h2.59v2.251H8.22zm4.187 0H15v2.251h-2.593zm3.886 0h2.59v2.251h-2.59zM8.22 17.723h2.59v2.25H8.22zm-4.114-3.814h2.588v2.25H4.105zm0 3.814h2.588v2.25H4.105zm8.301 0H15v2.25h-2.593zm3.886 0h2.59v2.25h-2.59z"/></g></g></svg>